# xmcd
#
# Track frame offsets:
# 150
# 22885
# 45125
# 60165
# 82087
# 96340
# 113575
# 126363
# 142535
# 174128
# 183258
# 200653
# 227003
# 242863
# 258460
# 274744
# 292864
# 305469
# 317714
# 333546
#
# Disc length: 4623 seconds
#
# Revision: 2
# Processed by: cddbd v1.5.1PL0 Copyright (c) Steve Scherf et al.
# Submitted via: CedeCatalogueitor 2.6.0.6 http://personales.ya.com/cdcatalogueitor
#
DISCID=07120d14
DTITLE=Ella Fitzgerald - Forever Ella
DYEAR=1996
DGENRE=Soul
TTITLE0=Mack The Knife
TTITLE1=I Love Paris
TTITLE2=The Lady Is A Tramp
TTITLE3=Summertime
TTITLE4=Blue Moon
TTITLE5=The Man I Love
TTITLE6=Misty
TTITLE7=A Fine Romance
TTITLE8=Bewitched
TTITLE9=What Is This Thing Called Love
TTITLE10=My Funny Valentine
TTITLE11=Love For Sale
TTITLE12=Let's Do It (Let Falls In Love)
TTITLE13='S Wonderful
TTITLE14=I Could Write A Book
TTITLE15=Let's Fall In Love
TTITLE16=Manhattan
TTITLE17=With A Song In My Heart
TTITLE18=Every Time We Say Goodbye
TTITLE19=Let's Face The Music and Dance
EXTD=
EXTT0=
EXTT1=
EXTT2=
EXTT3=
EXTT4=
EXTT5=
EXTT6=
EXTT7=
EXTT8=
EXTT9=
EXTT10=
EXTT11=
EXTT12=
EXTT13=
EXTT14=
EXTT15=
EXTT16=
EXTT17=
EXTT18=
EXTT19=
PLAYORDER=
